<svg width="16" height="16" viewBox="0 0 16 16" fill="none" xmlns="http://www.w3.org/2000/svg">
<rect width="16" height="16" fill="white"/>
<path d="M6.99514 14C6.1826 14 5.47812 13.8476 4.88169 13.5428C4.2939 13.2473 4 12.7901 4 12.1713C4 11.8018 4.14263 11.474 4.42788 11.1877C4.72177 10.9013 5.09346 10.6658 5.54295 10.4811C5.99244 10.2872 6.50243 10.1163 7.07293 9.96851C7.18531 9.93157 7.27607 9.90848 7.34522 9.89924L7.59157 10.1763C7.21124 10.3056 6.90005 10.4395 6.65802 10.5781C6.41599 10.7166 6.23015 10.8736 6.10049 11.0491C5.97083 11.2154 5.906 11.4001 5.906 11.6033C5.906 11.8896 6.02701 12.0882 6.26904 12.199C6.51972 12.3191 6.84819 12.3791 7.25446 12.3791C7.64344 12.3791 8.01513 12.3329 8.36953 12.2406C8.73258 12.1482 9.03079 12.0143 9.26418 11.8388C9.49757 11.6633 9.61426 11.4555 9.61426 11.2154C9.61426 11.0584 9.54943 10.9337 9.41977 10.8413C9.29011 10.749 9.10859 10.7028 8.8752 10.7028C8.66775 10.7028 8.45597 10.7259 8.23987 10.772C8.02377 10.809 7.75581 10.869 7.43598 10.9521C7.15937 11.0353 6.92166 11.0953 6.72285 11.1322C6.52404 11.1784 6.3382 11.2015 6.16532 11.2015C5.81091 11.2015 5.48244 11.1369 5.1799 11.0076C4.88601 10.869 4.6483 10.6843 4.46677 10.4534C4.2939 10.2133 4.20746 9.94081 4.20746 9.63602C4.20746 9.21117 4.40627 8.84173 4.80389 8.52771C5.21016 8.20445 5.76769 7.92275 6.4765 7.68262L6.90438 8.08438C6.792 8.12133 6.68828 8.15827 6.59319 8.19521C6.36845 8.27834 6.19989 8.3707 6.08752 8.47229C5.97515 8.57389 5.91896 8.71243 5.91896 8.88791C5.91896 9.03568 5.97515 9.14651 6.08752 9.2204C6.20854 9.29429 6.35981 9.33123 6.54133 9.33123C6.74014 9.33123 6.9476 9.31738 7.1637 9.28967C7.37979 9.25273 7.60454 9.20655 7.83793 9.15113C8.20962 9.07725 8.53377 9.02183 8.81037 8.98489C9.08698 8.94794 9.38952 8.92947 9.71799 8.92947C10.2971 8.92947 10.7769 9.07725 11.1572 9.3728C11.5462 9.66835 11.7407 10.1209 11.7407 10.7305C11.7407 11.4324 11.4943 12.0281 11.0016 12.5176C10.5176 13.0164 9.90816 13.3858 9.17342 13.6259C8.43868 13.8753 7.71259 14 6.99514 14ZM7.53971 8.66625C6.92599 8.66625 6.38142 8.55542 5.906 8.33375C5.43922 8.10286 5.07185 7.78421 4.80389 7.37783C4.54457 6.97145 4.41491 6.51427 4.41491 6.0063C4.41491 5.50756 4.54457 5.05961 4.80389 4.66247C5.07185 4.25609 5.44354 3.94207 5.91896 3.7204C6.39438 3.4895 6.93463 3.37406 7.53971 3.37406C7.9114 3.37406 8.20962 3.40638 8.43436 3.47103C8.66775 3.53568 8.91842 3.62343 9.18639 3.73426C9.29011 3.78044 9.3852 3.822 9.47164 3.85894C9.56672 3.88665 9.65748 3.9005 9.74392 3.9005C9.96867 3.9005 10.1286 3.81738 10.2237 3.65113C10.3187 3.48489 10.3663 3.26784 10.3663 3L12 3.55416C11.9914 3.90512 11.8574 4.17758 11.5981 4.37154C11.3474 4.55626 11.0146 4.64861 10.5997 4.64861C10.4959 4.63938 10.3793 4.63014 10.2496 4.62091C10.5262 5.02729 10.6645 5.48908 10.6645 6.0063C10.6645 6.51427 10.5305 6.97145 10.2626 7.37783C10.0032 7.78421 9.63587 8.10286 9.16045 8.33375C8.68504 8.55542 8.14479 8.66625 7.53971 8.66625ZM7.53971 7.30856C7.75581 7.30856 7.94598 7.25315 8.11021 7.14232C8.27445 7.03149 8.39978 6.87909 8.48622 6.68514C8.57266 6.48195 8.61588 6.25567 8.61588 6.0063C8.61588 5.63686 8.51648 5.33207 8.31767 5.09194C8.1275 4.85181 7.86818 4.73174 7.53971 4.73174C7.32361 4.73174 7.13344 4.78715 6.96921 4.89799C6.80497 5.00882 6.67531 5.16121 6.58023 5.35516C6.49379 5.54912 6.45057 5.76616 6.45057 6.0063C6.45057 6.38497 6.54997 6.69899 6.74878 6.94836C6.95624 7.1885 7.21988 7.30856 7.53971 7.30856Z" fill="#111111"/>
</svg>
