<svg width="36" height="36" viewBox="0 0 36 36" fill="none" xmlns="http://www.w3.org/2000/svg">
<path fill-rule="evenodd" clip-rule="evenodd" d="M14.998 3.375C8.57774 3.375 3.37305 8.57969 3.37305 15C3.37305 21.4203 8.57774 26.625 14.998 26.625C17.8031 26.625 20.376 25.6315 22.3843 23.9773L30.7026 32.2955L30.8287 32.4044C31.2691 32.7312 31.8941 32.6949 32.2935 32.2955C32.7329 31.8561 32.7329 31.1438 32.2935 30.7045L23.9753 22.3863C25.6296 20.378 26.623 17.805 26.623 15C26.623 8.57969 21.4184 3.375 14.998 3.375ZM14.9986 5.62484C20.1762 5.62484 24.3736 9.82217 24.3736 14.9998C24.3736 20.1775 20.1762 24.3748 14.9986 24.3748C9.82091 24.3748 5.62358 20.1775 5.62358 14.9998C5.62358 9.82217 9.82091 5.62484 14.9986 5.62484Z" fill="#111111"/>
</svg>
